# xmcd
#
# Track frame offsets:
#	150
#	13413
#	27072
#	39048
#	49171
#	63149
#
# Disc length: 1148 seconds
#
# Revision: 1
# Processed by: cddbd v1.5.1PL0 Copyright (c) Steve Scherf et al.
# Submitted via: audiograbber 1.83.01
#
DISCID=3f047a06
DTITLE=Drake - Mixed-Emotion
DYEAR=2004
DGENRE=Acoustic
TTITLE0=Drake - When you Say nothing at all
TTITLE1=Drake - Some Days are Diamond
TTITLE2=Drake - What I feel Inside
TTITLE3=Drake - Erinnerung
TTITLE4=Drake - Timeless
TTITLE5=Drake - Mixed-Emotion-Song
EXTD=Drake alias Tommy hat 2004 seine erste CD Veröffentlicht. Einige Cover und
EXTD=einige eigene Versionen.
EXTT0=Cover Version - Thanks Garth Brooks 
EXTT1=Thanks John Denver for this Great Song
EXTT2=Im Original von Joshua Carson
EXTT3=Sound and Lyrics by Drake
EXTT4=Und noch ein Stück von Joshua,.....Danke
EXTT5=Drakes Song für das beste Internet Radio im Universum ;-)
PLAYORDER=
